<svg width="20" height="22" viewBox="0 0 20 22" fill="none" xmlns="http://www.w3.org/2000/svg">
<path d="M15.739 7C15.739 5.4087 15.1069 3.88258 13.9816 2.75736C12.8564 1.63214 11.3303 1 9.739 1C8.1477 1 6.62158 1.63214 5.49636 2.75736C4.37114 3.88258 3.739 5.4087 3.739 7C3.739 10.0902 2.95947 12.206 2.08867 13.6054C1.35413 14.7859 0.98686 15.3761 1.00033 15.5408C1.01524 15.7231 1.05386 15.7926 1.20078 15.9016C1.33346 16 1.93159 16 3.12786 16H16.3501C17.5464 16 18.1445 16 18.2772 15.9016C18.4241 15.7926 18.4628 15.7231 18.4777 15.5408C18.4911 15.3761 18.1239 14.7859 17.3893 13.6054C16.5185 12.206 15.739 10.0902 15.739 7Z" fill="#409BEE"/>
<path d="M7.09318 20C7.79831 20.6224 8.72456 21 9.739 21C10.7534 21 11.6797 20.6224 12.3848 20M15.739 7C15.739 5.4087 15.1069 3.88258 13.9816 2.75736C12.8564 1.63214 11.3303 1 9.739 1C8.1477 1 6.62158 1.63214 5.49636 2.75736C4.37114 3.88258 3.739 5.4087 3.739 7C3.739 10.0902 2.95947 12.206 2.08867 13.6054C1.35413 14.7859 0.98686 15.3761 1.00033 15.5408C1.01524 15.7231 1.05386 15.7926 1.20078 15.9016C1.33346 16 1.93159 16 3.12786 16H16.3501C17.5464 16 18.1445 16 18.2772 15.9016C18.4241 15.7926 18.4628 15.7231 18.4777 15.5408C18.4911 15.3761 18.1239 14.7859 17.3893 13.6054C16.5185 12.206 15.739 10.0902 15.739 7Z" stroke="#409BEE" stroke-width="2" stroke-linecap="round" stroke-linejoin="round"/>
</svg>
