<svg width="11" height="10" viewBox="0 0 11 10" fill="none" xmlns="http://www.w3.org/2000/svg">
<path d="M2.02003 0.530053L0.530053 2.02003M10.4633 2.02003L8.97327 0.530053M2.51669 8.47661L1.52337 9.46993M8.47661 8.47661L9.46993 9.46993M5.49665 3.51001V5.49665L6.48997 6.48997M5.49665 9.46993C6.55043 9.46993 7.56105 9.05132 8.30619 8.30618C9.05132 7.56105 9.46993 6.55043 9.46993 5.49665C9.46993 4.44287 9.05132 3.43225 8.30619 2.68712C7.56105 1.94199 6.55043 1.52337 5.49665 1.52337C4.44287 1.52337 3.43225 1.94199 2.68712 2.68712C1.94199 3.43225 1.52337 4.44287 1.52337 5.49665C1.52337 6.55043 1.94199 7.56105 2.68712 8.30618C3.43225 9.05132 4.44287 9.46993 5.49665 9.46993Z" stroke="#111729" stroke-linecap="round" stroke-linejoin="round"/>
</svg>
