<svg width="17" height="16" viewBox="0 0 17 16" fill="none" xmlns="http://www.w3.org/2000/svg">
<path d="M2.9 0.5L0.5 2.9M16.5 2.9L14.1 0.5M3.7 13.3L2.1 14.9M13.3 13.3L14.9 14.9M8.5 5.3V8.5L10.1 10.1M8.5 14.9C10.1974 14.9 11.8253 14.2257 13.0255 13.0255C14.2257 11.8253 14.9 10.1974 14.9 8.5C14.9 6.80261 14.2257 5.17475 13.0255 3.97452C11.8253 2.77428 10.1974 2.1 8.5 2.1C6.80261 2.1 5.17475 2.77428 3.97452 3.97452C2.77428 5.17475 2.1 6.80261 2.1 8.5C2.1 10.1974 2.77428 11.8253 3.97452 13.0255C5.17475 14.2257 6.80261 14.9 8.5 14.9Z" stroke="#CCCCCC" stroke-linecap="round" stroke-linejoin="round"/>
</svg>
