<svg width="35" height="35" viewBox="0 0 35 35" fill="none" xmlns="http://www.w3.org/2000/svg">
<g clip-path="url(#clip0_1_227)">
<path d="M27.1587 11.2054C26.9256 10.9788 26.5985 10.8759 26.2785 10.9285C25.9578 10.9809 25.6809 11.1823 25.5321 11.4712C25.0205 12.465 24.3707 13.3784 23.6062 14.1858C23.6824 13.6025 23.7207 13.0158 23.7207 12.4275C23.7207 11.2987 23.5695 10.1371 23.2709 8.97446C22.2894 5.15584 19.7157 1.92648 16.2099 0.114476C15.9047 -0.0432293 15.541 -0.0376922 15.2407 0.129241C14.9404 0.296243 14.7437 0.602425 14.7168 0.944905C14.4435 4.4151 12.656 7.57221 9.81001 9.60877C9.77234 9.63591 9.73495 9.66339 9.69756 9.69073C9.62011 9.7474 9.5471 9.801 9.47888 9.84598C9.46821 9.85309 9.45762 9.86033 9.44723 9.86778C7.65731 11.1493 6.1804 12.8576 5.176 14.8085C4.15539 16.7929 3.63791 18.9224 3.63791 21.1376C3.63791 22.2661 3.78919 23.4277 4.08758 24.5905C5.66224 30.7194 11.1777 34.9999 17.5003 34.9999C25.1436 34.9999 31.3619 28.7812 31.3619 21.1376C31.3619 17.3682 29.8692 13.8409 27.1587 11.2054Z" fill="#409BEE"/>
<circle cx="16.4706" cy="20.5882" r="4.11765" fill="white"/>
</g>
<defs>
<clipPath id="clip0_1_227">
<rect width="34.3649" height="34.3649" fill="white" transform="scale(1.01848)"/>
</clipPath>
</defs>
</svg>
