<svg width="11" height="10" viewBox="0 0 11 10" fill="none" xmlns="http://www.w3.org/2000/svg">
<path d="M2.02011 0.530165L0.530165 2.02011M10.4631 2.02011L8.97319 0.530165M2.51676 8.47654L1.52346 9.46984M8.47654 8.47654L9.46984 9.46984M5.49665 3.51006V5.49665L6.48995 6.48995M5.49665 9.46984C6.5504 9.46984 7.561 9.05123 8.30612 8.30612C9.05123 7.561 9.46984 6.5504 9.46984 5.49665C9.46984 4.44289 9.05123 3.4323 8.30612 2.68718C7.561 1.94206 6.5504 1.52346 5.49665 1.52346C4.44289 1.52346 3.4323 1.94206 2.68718 2.68718C1.94206 3.4323 1.52346 4.44289 1.52346 5.49665C1.52346 6.5504 1.94206 7.561 2.68718 8.30612C3.4323 9.05123 4.44289 9.46984 5.49665 9.46984Z" stroke="black" stroke-linecap="round" stroke-linejoin="round"/>
</svg>
