<svg width="16" height="14" viewBox="0 0 16 14" fill="none" xmlns="http://www.w3.org/2000/svg">
<path d="M7.7031 13.3279C9.19489 13.3279 10.6256 12.7353 11.6804 11.6804C12.7353 10.6256 13.3279 9.19489 13.3279 7.7031C13.3279 6.21131 12.7353 4.78062 11.6804 3.72576C10.6256 2.67091 9.19489 2.07829 7.7031 2.07829C6.21131 2.07829 4.78062 2.67091 3.72576 3.72576C2.67091 4.78062 2.07829 6.21131 2.07829 7.7031C2.07829 9.19489 2.67091 10.6256 3.72576 11.6804C4.78062 12.7353 6.21131 13.3279 7.7031 13.3279Z" fill="white"/>
<path d="M2.7814 0.672093L0.672093 2.78139L2.7814 0.672093Z" fill="white"/>
<path d="M14.7341 2.78139L12.6248 0.672093L14.7341 2.78139Z" fill="white"/>
<path d="M3.4845 11.9217L2.07829 13.3279L3.4845 11.9217Z" fill="white"/>
<path d="M11.9217 11.9217L13.3279 13.3279L11.9217 11.9217Z" fill="white"/>
<path d="M7.7031 4.8907V7.7031L9.1093 9.1093" fill="white"/>
<path d="M2.7814 0.672093L0.672093 2.78139M14.7341 2.78139L12.6248 0.672093M3.4845 11.9217L2.07829 13.3279M11.9217 11.9217L13.3279 13.3279M7.7031 4.8907V7.7031L9.1093 9.1093M7.7031 13.3279C9.19489 13.3279 10.6256 12.7353 11.6804 11.6804C12.7353 10.6256 13.3279 9.19489 13.3279 7.7031C13.3279 6.21131 12.7353 4.78062 11.6804 3.72576C10.6256 2.67091 9.19489 2.07829 7.7031 2.07829C6.21131 2.07829 4.78062 2.67091 3.72576 3.72576C2.67091 4.78062 2.07829 6.21131 2.07829 7.7031C2.07829 9.19489 2.67091 10.6256 3.72576 11.6804C4.78062 12.7353 6.21131 13.3279 7.7031 13.3279Z" stroke="#929292" stroke-width="1.33826" stroke-linecap="round" stroke-linejoin="round"/>
</svg>
