<svg width="22" height="22" viewBox="0 0 22 22" fill="none" xmlns="http://www.w3.org/2000/svg">
<path d="M9.45258 12.5474L20.3324 1.66758M9.58477 12.8874L12.308 19.8898C12.5479 20.5067 12.6678 20.8152 12.8406 20.9052C12.9905 20.9833 13.169 20.9834 13.3189 20.9055C13.4918 20.8156 13.6121 20.5073 13.8528 19.8907L20.6815 2.39207C20.8987 1.83546 21.0073 1.55716 20.9479 1.37932C20.8963 1.22488 20.7751 1.10368 20.6207 1.05209C20.4428 0.992676 20.1645 1.10128 19.6079 1.3185L2.10926 8.14724C1.49266 8.38787 1.18436 8.50818 1.09452 8.68112C1.01663 8.83104 1.01673 9.00953 1.0948 9.15936C1.18485 9.33219 1.49329 9.45214 2.11017 9.69204L9.11264 12.4152C9.23787 12.4639 9.30048 12.4883 9.3532 12.5259C9.39993 12.5592 9.44079 12.6001 9.47412 12.6468C9.51173 12.6995 9.53608 12.7621 9.58477 12.8874Z" stroke="white" stroke-width="2" stroke-linecap="round" stroke-linejoin="round"/>
</svg>
