<svg width="22" height="22" viewBox="0 0 22 22" fill="none" xmlns="http://www.w3.org/2000/svg">
<path d="M20.2234 14.885C19.5868 16.3905 18.5911 17.7171 17.3234 18.7488C16.0557 19.7806 14.5545 20.4861 12.9511 20.8036C11.3478 21.1212 9.69104 21.0411 8.12576 20.5705C6.56048 20.0998 5.13432 19.2529 3.97197 18.1038C2.80962 16.9546 1.94646 15.5382 1.45797 13.9784C0.96948 12.4186 0.870523 10.7629 1.16975 9.156C1.46898 7.54912 2.15728 6.04 3.17448 4.76058C4.19169 3.48116 5.50681 2.4704 7.00489 1.81666M20.2522 7.16325C20.6528 8.13034 20.8985 9.15273 20.9819 10.1929C21.0025 10.4498 21.0128 10.5783 20.9617 10.6941C20.9191 10.7907 20.8347 10.8822 20.7417 10.9324C20.6304 10.9925 20.4914 10.9925 20.2134 10.9925H11.808C11.5278 10.9925 11.3877 10.9925 11.2806 10.938C11.1865 10.89 11.11 10.8135 11.062 10.7194C11.0075 10.6123 11.0075 10.4722 11.0075 10.192V1.78664C11.0075 1.5086 11.0075 1.36957 11.0676 1.25829C11.1178 1.16532 11.2093 1.08088 11.3059 1.03826C11.4217 0.987231 11.5502 0.997532 11.8071 1.01813C12.8473 1.10152 13.8697 1.34724 14.8367 1.74782C16.0508 2.25069 17.1539 2.98776 18.0831 3.91694C19.0122 4.84612 19.7493 5.94922 20.2522 7.16325Z" stroke="#CCCCCC" stroke-width="2" stroke-linecap="round" stroke-linejoin="round"/>
</svg>
