<svg width="22" height="21" viewBox="0 0 22 21" fill="none" xmlns="http://www.w3.org/2000/svg">
<path d="M8.00002 19.7499V12.3499C8.00002 11.7899 8.00002 11.5099 8.10901 11.2959C8.20489 11.1078 8.35787 10.9548 8.54603 10.8589C8.75994 10.7499 9.03996 10.7499 9.60001 10.7499H12.4C12.96 10.7499 13.2401 10.7499 13.454 10.8589C13.6421 10.9548 13.7951 11.1078 13.891 11.2959C14 11.5099 14 11.7899 14 12.3499V19.7499M1.00006 8.24995L10.04 1.46999C10.3843 1.2118 10.5564 1.0827 10.7454 1.03294C10.9123 0.989013 11.0877 0.989013 11.2546 1.03294C11.4436 1.0827 11.6157 1.2118 11.96 1.46999L20.9999 8.24995M3.00005 6.74996V16.5499C3.00005 17.67 3.00005 18.2301 3.21803 18.6579C3.40978 19.0342 3.71574 19.3402 4.09206 19.5319C4.51988 19.7499 5.07993 19.7499 6.20003 19.7499H15.8C16.9201 19.7499 17.4801 19.7499 17.9079 19.5319C18.2843 19.3402 18.5902 19.0342 18.782 18.6579C19 18.2301 19 17.67 19 16.5499V6.74996L12.92 2.18999C12.2315 1.6736 11.8872 1.41541 11.5091 1.31588C11.1754 1.22803 10.8246 1.22803 10.4909 1.31588C10.1128 1.41541 9.76853 1.6736 9.08001 2.18999L3.00005 6.74996Z" stroke="white" stroke-width="2" stroke-linecap="round" stroke-linejoin="round"/>
</svg>
